<mxfile host="app.diagrams.net" modified="2021-04-05T18:04:53.738Z" agent="5.0 (Windows NT 10.0; Win64; x64) AppleWebKit/537.36 (KHTML, like Gecko) Chrome/89.0.4389.114 Safari/537.36" etag="ROFKCK0AUMMqSI-MTiUf" version="14.5.7" type="github">
  <diagram id="eo296pFKSWCKGFNeOVWX" name="Page-1">
    <mxGraphModel dx="2031" dy="-93" grid="1" gridSize="10" guides="1" tooltips="1" connect="1" arrows="1" fold="1" page="1" pageScale="1" pageWidth="850" pageHeight="1100" math="0" shadow="0">
      <root>
        <mxCell id="0" />
        <mxCell id="1" parent="0" />
        <mxCell id="xRA5tRHXkosrzog23oF8-5" value="" style="edgeStyle=orthogonalEdgeStyle;rounded=0;orthogonalLoop=1;jettySize=auto;html=1;" parent="1" source="xRA5tRHXkosrzog23oF8-3" target="xRA5tRHXkosrzog23oF8-4" edge="1">
          <mxGeometry relative="1" as="geometry" />
        </mxCell>
        <mxCell id="xRA5tRHXkosrzog23oF8-3" value="&lt;font style=&quot;font-size: 30px;&quot;&gt;Start&lt;/font&gt;" style="ellipse;whiteSpace=wrap;html=1;fontSize=30;fontFamily=Roboto Condensed;fontSource=https%3A%2F%2Ffonts.googleapis.com%2Fcss%3Ffamily%3DRoboto%2BCondensed;fillColor=#C7D3E6;strokeColor=#C7D3E6;" parent="1" vertex="1">
          <mxGeometry x="120" y="1320" width="160" height="80" as="geometry" />
        </mxCell>
        <mxCell id="xRA5tRHXkosrzog23oF8-7" value="" style="edgeStyle=orthogonalEdgeStyle;rounded=0;orthogonalLoop=1;jettySize=auto;html=1;entryX=0;entryY=0.5;entryDx=0;entryDy=0;exitX=1;exitY=0.5;exitDx=0;exitDy=0;" parent="1" source="xRA5tRHXkosrzog23oF8-4" target="xRA5tRHXkosrzog23oF8-6" edge="1">
          <mxGeometry relative="1" as="geometry">
            <Array as="points">
              <mxPoint x="630" y="1361" />
            </Array>
          </mxGeometry>
        </mxCell>
        <mxCell id="xRA5tRHXkosrzog23oF8-4" value="Read Camera&lt;br style=&quot;font-size: 20px;&quot;&gt;(User distance and position)" style="shape=parallelogram;perimeter=parallelogramPerimeter;whiteSpace=wrap;html=1;fixedSize=1;fontSize=20;fontFamily=Roboto Condensed;fontSource=https%3A%2F%2Ffonts.googleapis.com%2Fcss%3Ffamily%3DRoboto%2BCondensed;fillColor=#3F5378;strokeColor=#3F5378;fontColor=#FFFFFF;" parent="1" vertex="1">
          <mxGeometry x="320" y="1321" width="280" height="79" as="geometry" />
        </mxCell>
        <mxCell id="xRA5tRHXkosrzog23oF8-9" value="" style="edgeStyle=orthogonalEdgeStyle;rounded=0;orthogonalLoop=1;jettySize=auto;html=1;" parent="1" source="xRA5tRHXkosrzog23oF8-6" target="xRA5tRHXkosrzog23oF8-8" edge="1">
          <mxGeometry relative="1" as="geometry" />
        </mxCell>
        <mxCell id="xRA5tRHXkosrzog23oF8-6" value="Read Ultrasonic Sensor&lt;br style=&quot;font-size: 20px;&quot;&gt;(Left, Middle, Right)" style="shape=parallelogram;perimeter=parallelogramPerimeter;whiteSpace=wrap;html=1;fixedSize=1;fontSize=20;fontFamily=Roboto Condensed;fontSource=https%3A%2F%2Ffonts.googleapis.com%2Fcss%3Ffamily%3DRoboto%2BCondensed;fillColor=#3F5378;strokeColor=#3F5378;fontColor=#FFFFFF;" parent="1" vertex="1">
          <mxGeometry x="640" y="1320" width="240" height="80" as="geometry" />
        </mxCell>
        <mxCell id="xRA5tRHXkosrzog23oF8-8" value="User detected?" style="rhombus;whiteSpace=wrap;html=1;fontSize=20;fontFamily=Roboto Condensed;fontSource=https%3A%2F%2Ffonts.googleapis.com%2Fcss%3Ffamily%3DRoboto%2BCondensed;fillColor=#C7D3E6;strokeColor=#C7D3E6;" parent="1" vertex="1">
          <mxGeometry x="920" y="1310" width="260" height="100" as="geometry" />
        </mxCell>
        <mxCell id="xRA5tRHXkosrzog23oF8-22" style="edgeStyle=orthogonalEdgeStyle;rounded=1;orthogonalLoop=1;jettySize=auto;html=1;entryX=0.5;entryY=0;entryDx=0;entryDy=0;" parent="1" source="xRA5tRHXkosrzog23oF8-15" target="xRA5tRHXkosrzog23oF8-4" edge="1">
          <mxGeometry relative="1" as="geometry">
            <mxPoint x="460" y="1320" as="targetPoint" />
          </mxGeometry>
        </mxCell>
        <mxCell id="xRA5tRHXkosrzog23oF8-15" value="Motors OFF&lt;br style=&quot;font-size: 20px;&quot;&gt;Buzzer ON" style="whiteSpace=wrap;html=1;fontSize=20;fontFamily=Roboto Condensed;fontSource=https%3A%2F%2Ffonts.googleapis.com%2Fcss%3Ffamily%3DRoboto%2BCondensed;fillColor=#FF9800;strokeColor=#FF9800;" parent="1" vertex="1">
          <mxGeometry x="930" y="1160" width="240" height="80" as="geometry" />
        </mxCell>
        <mxCell id="xRA5tRHXkosrzog23oF8-23" style="edgeStyle=orthogonalEdgeStyle;rounded=1;orthogonalLoop=1;jettySize=auto;html=1;exitX=0;exitY=0.5;exitDx=0;exitDy=0;entryX=0.5;entryY=1;entryDx=0;entryDy=0;" parent="1" source="xRA5tRHXkosrzog23oF8-18" target="xRA5tRHXkosrzog23oF8-4" edge="1">
          <mxGeometry relative="1" as="geometry" />
        </mxCell>
        <mxCell id="xRA5tRHXkosrzog23oF8-18" value="Motors ON&lt;br style=&quot;font-size: 20px;&quot;&gt;Buzzer OFF" style="whiteSpace=wrap;html=1;fontSize=20;fontFamily=Roboto Condensed;fontSource=https%3A%2F%2Ffonts.googleapis.com%2Fcss%3Ffamily%3DRoboto%2BCondensed;fillColor=#FF9800;strokeColor=#FF9800;" parent="1" vertex="1">
          <mxGeometry x="930" y="1480" width="240" height="80" as="geometry" />
        </mxCell>
        <mxCell id="xRA5tRHXkosrzog23oF8-21" style="edgeStyle=orthogonalEdgeStyle;rounded=0;orthogonalLoop=1;jettySize=auto;html=1;exitX=0;exitY=0.5;exitDx=0;exitDy=0;entryX=1;entryY=0.5;entryDx=0;entryDy=0;" parent="1" source="xRA5tRHXkosrzog23oF8-19" target="xRA5tRHXkosrzog23oF8-18" edge="1">
          <mxGeometry relative="1" as="geometry" />
        </mxCell>
        <mxCell id="xRA5tRHXkosrzog23oF8-19" value="Adjust Speed&lt;br style=&quot;font-size: 22px;&quot;&gt;Set Motor Direction" style="whiteSpace=wrap;html=1;fontSize=22;fontFamily=Roboto Condensed;fontSource=https%3A%2F%2Ffonts.googleapis.com%2Fcss%3Ffamily%3DRoboto%2BCondensed;fillColor=#FF9800;strokeColor=#FF9800;" parent="1" vertex="1">
          <mxGeometry x="1440" y="1480" width="240" height="80" as="geometry" />
        </mxCell>
        <mxCell id="xRA5tRHXkosrzog23oF8-24" value="Yes" style="text;html=1;align=center;verticalAlign=middle;whiteSpace=wrap;rounded=0;fontSize=20;" parent="1" vertex="1">
          <mxGeometry x="1200" y="1350" width="40" height="20" as="geometry" />
        </mxCell>
        <mxCell id="xRA5tRHXkosrzog23oF8-46" value="Yes" style="text;html=1;align=center;verticalAlign=middle;whiteSpace=wrap;rounded=0;fontSize=20;" parent="1" vertex="1">
          <mxGeometry x="1540" y="1350" width="40" height="20" as="geometry" />
        </mxCell>
        <mxCell id="xRA5tRHXkosrzog23oF8-48" value="Yes" style="text;html=1;align=center;verticalAlign=middle;whiteSpace=wrap;rounded=0;fontSize=20;" parent="1" vertex="1">
          <mxGeometry x="1530" y="1188.75" width="40" height="22.5" as="geometry" />
        </mxCell>
        <mxCell id="xRA5tRHXkosrzog23oF8-58" value="" style="elbow=horizontal;endArrow=classic;html=1;fontFamily=roboto;fontSource=https%3A%2F%2Ffonts.googleapis.com%2Fcss%3Ffamily%3Droboto;fontSize=20;entryX=1;entryY=0.5;entryDx=0;entryDy=0;exitX=0;exitY=0.5;exitDx=0;exitDy=0;" parent="1" source="xRA5tRHXkosrzog23oF8-48" target="xRA5tRHXkosrzog23oF8-15" edge="1">
          <mxGeometry width="50" height="50" relative="1" as="geometry">
            <mxPoint x="1530" y="1192.5" as="sourcePoint" />
            <mxPoint x="1640" y="1155" as="targetPoint" />
          </mxGeometry>
        </mxCell>
        <mxCell id="iL8zrg1tameDn-isLObT-1" value="" style="endArrow=none;html=1;entryX=0.5;entryY=0;entryDx=0;entryDy=0;rounded=1;exitX=1;exitY=0.5;exitDx=0;exitDy=0;" parent="1" source="xRA5tRHXkosrzog23oF8-48" target="bF-JIVJtuntd-KFYGg1B-3" edge="1">
          <mxGeometry width="50" height="50" relative="1" as="geometry">
            <mxPoint x="1760" y="1164" as="sourcePoint" />
            <mxPoint x="1795" y="1313" as="targetPoint" />
            <Array as="points">
              <mxPoint x="1640" y="1200" />
              <mxPoint x="1730" y="1200" />
            </Array>
          </mxGeometry>
        </mxCell>
        <mxCell id="iL8zrg1tameDn-isLObT-5" value="No" style="text;html=1;align=center;verticalAlign=middle;whiteSpace=wrap;rounded=0;fontSize=20;" parent="1" vertex="1">
          <mxGeometry x="1200" y="1256" width="40" height="20" as="geometry" />
        </mxCell>
        <mxCell id="iL8zrg1tameDn-isLObT-6" value="No" style="text;html=1;align=center;verticalAlign=middle;whiteSpace=wrap;rounded=0;fontSize=20;" parent="1" vertex="1">
          <mxGeometry x="1030" y="1276" width="40" height="20" as="geometry" />
        </mxCell>
        <mxCell id="iL8zrg1tameDn-isLObT-8" value="" style="endArrow=none;html=1;entryX=0.5;entryY=0;entryDx=0;entryDy=0;exitX=1;exitY=0.5;exitDx=0;exitDy=0;" parent="1" source="iL8zrg1tameDn-isLObT-5" target="bF-JIVJtuntd-KFYGg1B-1" edge="1">
          <mxGeometry width="50" height="50" relative="1" as="geometry">
            <mxPoint x="1350" y="1246" as="sourcePoint" />
            <mxPoint x="1530" y="1318.5" as="targetPoint" />
            <Array as="points">
              <mxPoint x="1390" y="1266" />
              <mxPoint x="1390" y="1290" />
            </Array>
          </mxGeometry>
        </mxCell>
        <mxCell id="iL8zrg1tameDn-isLObT-9" value="" style="edgeStyle=segmentEdgeStyle;endArrow=classic;html=1;entryX=0.5;entryY=1;entryDx=0;entryDy=0;exitX=0;exitY=0.5;exitDx=0;exitDy=0;" parent="1" source="iL8zrg1tameDn-isLObT-5" target="xRA5tRHXkosrzog23oF8-15" edge="1">
          <mxGeometry width="50" height="50" relative="1" as="geometry">
            <mxPoint x="1210" y="1291" as="sourcePoint" />
            <mxPoint x="1260" y="1241" as="targetPoint" />
          </mxGeometry>
        </mxCell>
        <mxCell id="iL8zrg1tameDn-isLObT-11" value="" style="endArrow=classic;html=1;exitX=0.5;exitY=0;exitDx=0;exitDy=0;entryX=0.5;entryY=1;entryDx=0;entryDy=0;" parent="1" source="iL8zrg1tameDn-isLObT-6" target="xRA5tRHXkosrzog23oF8-15" edge="1">
          <mxGeometry width="50" height="50" relative="1" as="geometry">
            <mxPoint x="1180" y="1246" as="sourcePoint" />
            <mxPoint x="1230" y="1196" as="targetPoint" />
          </mxGeometry>
        </mxCell>
        <mxCell id="bF-JIVJtuntd-KFYGg1B-1" value="1m &amp;lt; User distance &amp;lt; 4m" style="rhombus;whiteSpace=wrap;html=1;fontSize=20;fontFamily=Roboto Condensed;fontSource=https%3A%2F%2Ffonts.googleapis.com%2Fcss%3Ffamily%3DRoboto%2BCondensed;fillColor=#C7D3E6;strokeColor=#C7D3E6;" vertex="1" parent="1">
          <mxGeometry x="1260" y="1310" width="260" height="100.5" as="geometry" />
        </mxCell>
        <mxCell id="bF-JIVJtuntd-KFYGg1B-3" value="Obstacle detected?" style="rhombus;whiteSpace=wrap;html=1;fontSize=20;fontFamily=Roboto Condensed;fontSource=https%3A%2F%2Ffonts.googleapis.com%2Fcss%3Ffamily%3DRoboto%2BCondensed;fillColor=#C7D3E6;strokeColor=#C7D3E6;" vertex="1" parent="1">
          <mxGeometry x="1600" y="1310" width="260" height="100" as="geometry" />
        </mxCell>
        <mxCell id="bF-JIVJtuntd-KFYGg1B-4" value="" style="endArrow=none;html=1;fontSize=38;fontColor=#FFFFFF;entryX=0.5;entryY=1;entryDx=0;entryDy=0;exitX=0.5;exitY=0;exitDx=0;exitDy=0;" edge="1" parent="1" source="xRA5tRHXkosrzog23oF8-8" target="iL8zrg1tameDn-isLObT-6">
          <mxGeometry width="50" height="50" relative="1" as="geometry">
            <mxPoint x="900" y="1290" as="sourcePoint" />
            <mxPoint x="950" y="1240" as="targetPoint" />
          </mxGeometry>
        </mxCell>
        <mxCell id="bF-JIVJtuntd-KFYGg1B-5" value="" style="endArrow=none;html=1;fontSize=38;fontColor=#FFFFFF;entryX=0;entryY=0.5;entryDx=0;entryDy=0;exitX=1;exitY=0.5;exitDx=0;exitDy=0;" edge="1" parent="1" source="xRA5tRHXkosrzog23oF8-8" target="xRA5tRHXkosrzog23oF8-24">
          <mxGeometry width="50" height="50" relative="1" as="geometry">
            <mxPoint x="1060" y="1320" as="sourcePoint" />
            <mxPoint x="1060" y="1306" as="targetPoint" />
          </mxGeometry>
        </mxCell>
        <mxCell id="bF-JIVJtuntd-KFYGg1B-6" value="" style="endArrow=classic;html=1;fontSize=38;fontColor=#FFFFFF;entryX=0;entryY=0.5;entryDx=0;entryDy=0;exitX=1;exitY=0.5;exitDx=0;exitDy=0;" edge="1" parent="1" source="xRA5tRHXkosrzog23oF8-24" target="bF-JIVJtuntd-KFYGg1B-1">
          <mxGeometry width="50" height="50" relative="1" as="geometry">
            <mxPoint x="1190" y="1400" as="sourcePoint" />
            <mxPoint x="1240" y="1350" as="targetPoint" />
          </mxGeometry>
        </mxCell>
        <mxCell id="bF-JIVJtuntd-KFYGg1B-10" value="" style="endArrow=none;html=1;fontSize=38;fontColor=#FFFFFF;entryX=0;entryY=0.5;entryDx=0;entryDy=0;exitX=1;exitY=0.5;exitDx=0;exitDy=0;" edge="1" parent="1" source="bF-JIVJtuntd-KFYGg1B-1" target="xRA5tRHXkosrzog23oF8-46">
          <mxGeometry width="50" height="50" relative="1" as="geometry">
            <mxPoint x="1500" y="1380" as="sourcePoint" />
            <mxPoint x="1550" y="1330" as="targetPoint" />
          </mxGeometry>
        </mxCell>
        <mxCell id="bF-JIVJtuntd-KFYGg1B-11" value="" style="endArrow=classic;html=1;fontSize=38;fontColor=#FFFFFF;entryX=0;entryY=0.5;entryDx=0;entryDy=0;exitX=1;exitY=0.5;exitDx=0;exitDy=0;" edge="1" parent="1" source="xRA5tRHXkosrzog23oF8-46" target="bF-JIVJtuntd-KFYGg1B-3">
          <mxGeometry width="50" height="50" relative="1" as="geometry">
            <mxPoint x="1500" y="1380" as="sourcePoint" />
            <mxPoint x="1550" y="1330" as="targetPoint" />
          </mxGeometry>
        </mxCell>
        <mxCell id="bF-JIVJtuntd-KFYGg1B-14" value="" style="endArrow=classic;html=1;fontSize=38;fontColor=#FFFFFF;entryX=1;entryY=0.5;entryDx=0;entryDy=0;exitX=0.5;exitY=1;exitDx=0;exitDy=0;" edge="1" parent="1" source="bF-JIVJtuntd-KFYGg1B-3" target="xRA5tRHXkosrzog23oF8-19">
          <mxGeometry width="50" height="50" relative="1" as="geometry">
            <mxPoint x="1500" y="1420" as="sourcePoint" />
            <mxPoint x="1550" y="1370" as="targetPoint" />
            <Array as="points">
              <mxPoint x="1730" y="1520" />
            </Array>
          </mxGeometry>
        </mxCell>
        <mxCell id="bF-JIVJtuntd-KFYGg1B-15" value="No" style="text;html=1;align=center;verticalAlign=middle;whiteSpace=wrap;rounded=0;fontSize=20;fillColor=#FFFFFF;" vertex="1" parent="1">
          <mxGeometry x="1710" y="1450" width="40" height="20" as="geometry" />
        </mxCell>
        <mxCell id="bF-JIVJtuntd-KFYGg1B-16" value="Motors ON&lt;br style=&quot;font-size: 22px;&quot;&gt;Buzzer OFF" style="whiteSpace=wrap;html=1;fontSize=22;fontFamily=Roboto Condensed;fontSource=https%3A%2F%2Ffonts.googleapis.com%2Fcss%3Ffamily%3DRoboto%2BCondensed;fillColor=#FF9800;strokeColor=#FF9800;" vertex="1" parent="1">
          <mxGeometry x="930" y="1480" width="240" height="80" as="geometry" />
        </mxCell>
        <mxCell id="bF-JIVJtuntd-KFYGg1B-17" value="Motors OFF&lt;br style=&quot;font-size: 22px;&quot;&gt;Buzzer ON" style="whiteSpace=wrap;html=1;fontSize=22;fontFamily=Roboto Condensed;fontSource=https%3A%2F%2Ffonts.googleapis.com%2Fcss%3Ffamily%3DRoboto%2BCondensed;fillColor=#FF9800;strokeColor=#FF9800;" vertex="1" parent="1">
          <mxGeometry x="930" y="1160" width="240" height="80" as="geometry" />
        </mxCell>
      </root>
    </mxGraphModel>
  </diagram>
</mxfile>
